<?xml version="1.0" encoding="UTF-8" standalone="no"?>
<!-- Created with Inkscape (http://www.inkscape.org/) -->

<svg
   xmlns:osb="http://www.openswatchbook.org/uri/2009/osb"
   xmlns:dc="http://purl.org/dc/elements/1.1/"
   xmlns:cc="http://creativecommons.org/ns#"
   xmlns:rdf="http://www.w3.org/1999/02/22-rdf-syntax-ns#"
   xmlns:svg="http://www.w3.org/2000/svg"
   xmlns="http://www.w3.org/2000/svg"
   xmlns:sodipodi="http://sodipodi.sourceforge.net/DTD/sodipodi-0.dtd"
   xmlns:inkscape="http://www.inkscape.org/namespaces/inkscape"
   sodipodi:docname="allow-notifications-symbolic.svg"
   inkscape:export-filename="/home/sam/dev/RESOURCES/gnome-icon-theme-symbolic/src/gnome-stencils.png"
   inkscape:export-xdpi="90"
   inkscape:export-ydpi="90"
   height="16"
   id="svg7384"
   version="1.1"
   inkscape:version="0.92.3 (2405546, 2018-03-11)"
   viewBox="0 0 16 16"
   width="16">
  <metadata
     id="metadata90">
    <rdf:RDF>
      <cc:Work
         rdf:about="">
        <dc:format>image/svg+xml</dc:format>
        <dc:type
           rdf:resource="http://purl.org/dc/dcmitype/StillImage" />
        <dc:title>Gnome Symbolic Icon Theme</dc:title>
      </cc:Work>
    </rdf:RDF>
  </metadata>
  <sodipodi:namedview
     inkscape:bbox-nodes="true"
     inkscape:bbox-paths="true"
     bordercolor="#666666"
     borderopacity="1"
     inkscape:current-layer="svg7384"
     inkscape:cx="-15.376156"
     inkscape:cy="3.43866"
     inkscape:document-rotation="0"
     inkscape:document-units="px"
     gridtolerance="10"
     inkscape:guide-bbox="true"
     guidetolerance="10"
     id="namedview88"
     inkscape:measure-end="0,0"
     inkscape:measure-start="-190.687,-191.14"
     inkscape:object-nodes="true"
     inkscape:object-paths="false"
     objecttolerance="10"
     pagecolor="#ffffff"
     inkscape:pageopacity="1"
     inkscape:pageshadow="2"
     showborder="true"
     showgrid="false"
     showguides="true"
     inkscape:snap-bbox="true"
     inkscape:snap-bbox-midpoints="false"
     inkscape:snap-global="true"
     inkscape:snap-grids="true"
     inkscape:snap-nodes="true"
     inkscape:snap-others="false"
     inkscape:snap-to-guides="true"
     inkscape:window-height="718"
     inkscape:window-maximized="1"
     inkscape:window-width="1366"
     inkscape:window-x="0"
     inkscape:window-y="0"
     inkscape:zoom="11.313708"
     inkscape:pagecheckerboard="true">
    <inkscape:grid
       dotted="false"
       empspacing="2"
       enabled="true"
       id="grid4866"
       originx="-82.02888"
       originy="432.02581"
       snapvisiblegridlinesonly="true"
       spacingx="1px"
       spacingy="1px"
       type="xygrid"
       visible="true" />
  </sodipodi:namedview>
  <title
     id="title9167">Gnome Symbolic Icon Theme</title>
  <defs
     id="defs7386">
    <inkscape:perspective
       sodipodi:type="inkscape:persp3d"
       inkscape:vp_x="0 : 8 : 1"
       inkscape:vp_y="0 : 1000 : 0"
       inkscape:vp_z="16 : 8 : 1"
       inkscape:persp3d-origin="8 : 5.3333333 : 1"
       id="perspective45" />
    <linearGradient
       gradientTransform="matrix(-2.7365795,0.28202934,-0.18908311,-0.99988321,239.54008,-879.45557)"
       id="linearGradient19282"
       osb:paint="solid">
      <stop
         id="stop19284"
         offset="0"
         style="stop-color:#666666;stop-opacity:1;" />
    </linearGradient>
  </defs>
  <path
     style="opacity:1;fill:#3eff00;fill-opacity:1;stroke:none;stroke-width:1.14285719;stroke-linecap:butt;stroke-linejoin:bevel;stroke-miterlimit:4;stroke-dasharray:none;stroke-opacity:1"
     d="M 12,8 A 4,4 0 0 0 8.0000004,12 4,4 0 0 0 12,16 4,4 0 0 0 16,12 4,4 0 0 0 12,8 Z m 1.765625,1.640625 1.091518,1.091517 -3.08259,3.082591 -0.544642,0.544642 -0.546876,-0.544642 -1.5401776,-1.542412 1.0915176,-1.091518 0.995536,0.995536 z"
     class="success"
     id="path2564"
     inkscape:connector-curvature="0" />
  <path
     style="color:#bebebe;overflow:visible;isolation:auto;mix-blend-mode:normal;fill:#bebebe;fill-opacity:1;marker:none"
     d="M 6 0.75 A 1 1 0 0 0 5 1.75 L 5 1.7597656 C 3.236 2.2157656 2.002 3.9280001 2 5.75 C 2 5.75 1.9998438 10.749094 0.33984375 11.371094 C 0.32384375 11.381094 0.31778125 11.401062 0.30078125 11.414062 A 0.726 0.726 0 0 0 0.13867188 11.589844 C 0.12067187 11.616844 0.0999375 11.638969 0.0859375 11.667969 A 0.738 0.738 0 0 0 0 12.001953 C 0 12.416953 0.335 12.751953 0.75 12.751953 L 7.0605469 12.751953 A 4.9999995 4.9999995 0 0 1 7 12 A 4.9999995 4.9999995 0 0 1 10.089844 7.3828125 C 10.000699 6.4630344 10 5.75 10 5.75 C 9.998 3.9280001 8.7649997 2.2157656 7 1.7597656 L 7 1.75 A 1 1 0 0 0 6 0.75 z M 4.0664062 13.75 A 2 2 0 0 0 6 15.25 A 2 2 0 0 0 7.6269531 14.410156 A 4.9999995 4.9999995 0 0 1 7.3183594 13.75 L 4.0664062 13.75 z "
     id="path2" />
</svg>
