<?xml version="1.0" encoding="UTF-8" standalone="no"?>
<!-- Created with Inkscape (http://www.inkscape.org/) -->

<svg
   xmlns:osb="http://www.openswatchbook.org/uri/2009/osb"
   xmlns:dc="http://purl.org/dc/elements/1.1/"
   xmlns:cc="http://creativecommons.org/ns#"
   xmlns:rdf="http://www.w3.org/1999/02/22-rdf-syntax-ns#"
   xmlns:svg="http://www.w3.org/2000/svg"
   xmlns="http://www.w3.org/2000/svg"
   xmlns:sodipodi="http://sodipodi.sourceforge.net/DTD/sodipodi-0.dtd"
   xmlns:inkscape="http://www.inkscape.org/namespaces/inkscape"
   sodipodi:docname="mute-notifications-symbolic.svg"
   inkscape:export-filename="/home/sam/dev/RESOURCES/gnome-icon-theme-symbolic/src/gnome-stencils.png"
   inkscape:export-xdpi="90"
   inkscape:export-ydpi="90"
   height="16"
   id="svg7384"
   version="1.1"
   inkscape:version="0.92.3 (2405546, 2018-03-11)"
   viewBox="0 0 16 16"
   width="16">
  <metadata
     id="metadata90">
    <rdf:RDF>
      <cc:Work
         rdf:about="">
        <dc:format>image/svg+xml</dc:format>
        <dc:type
           rdf:resource="http://purl.org/dc/dcmitype/StillImage" />
        <dc:title>Gnome Symbolic Icon Theme</dc:title>
      </cc:Work>
    </rdf:RDF>
  </metadata>
  <sodipodi:namedview
     inkscape:bbox-nodes="true"
     inkscape:bbox-paths="true"
     bordercolor="#666666"
     borderopacity="1"
     inkscape:current-layer="svg7384"
     inkscape:cx="-10.077458"
     inkscape:cy="3.43866"
     inkscape:document-rotation="0"
     inkscape:document-units="px"
     gridtolerance="10"
     inkscape:guide-bbox="true"
     guidetolerance="10"
     id="namedview88"
     inkscape:measure-end="0,0"
     inkscape:measure-start="-190.687,-191.14"
     inkscape:object-nodes="true"
     inkscape:object-paths="false"
     objecttolerance="10"
     pagecolor="#ffffff"
     inkscape:pageopacity="1"
     inkscape:pageshadow="2"
     showborder="true"
     showgrid="false"
     showguides="true"
     inkscape:snap-bbox="true"
     inkscape:snap-bbox-midpoints="false"
     inkscape:snap-global="true"
     inkscape:snap-grids="true"
     inkscape:snap-nodes="true"
     inkscape:snap-others="false"
     inkscape:snap-to-guides="true"
     inkscape:window-height="718"
     inkscape:window-maximized="1"
     inkscape:window-width="1366"
     inkscape:window-x="0"
     inkscape:window-y="0"
     inkscape:zoom="11.313708"
     inkscape:pagecheckerboard="true">
    <inkscape:grid
       dotted="false"
       empspacing="2"
       enabled="true"
       id="grid4866"
       originx="-82.02888"
       originy="432.02581"
       snapvisiblegridlinesonly="true"
       spacingx="1px"
       spacingy="1px"
       type="xygrid"
       visible="true" />
  </sodipodi:namedview>
  <title
     id="title9167">Gnome Symbolic Icon Theme</title>
  <defs
     id="defs7386">
    <linearGradient
       gradientTransform="matrix(-2.7365795,0.28202934,-0.18908311,-0.99988321,239.54008,-879.45557)"
       id="linearGradient19282"
       osb:paint="solid">
      <stop
         id="stop19284"
         offset="0"
         style="stop-color:#666666;stop-opacity:1;" />
    </linearGradient>
  </defs>
  <path
     inkscape:connector-curvature="0"
     style="display:inline;fill:#ef2929;stroke-width:1.14285719"
     d="m 12,8 a 4,4 0 0 0 -4,4 4,4 0 0 0 4,4 4,4 0 0 0 4,-4 4,4 0 0 0 -4,-4 z m -2.8571432,3.428571 h 5.7142862 v 1.142858 H 9.1428568 Z"
     class="error"
     id="path943" />
  <path
     inkscape:connector-curvature="0"
     style="color:#bebebe;overflow:visible;isolation:auto;mix-blend-mode:normal;fill:#bebebe;fill-opacity:1;marker:none"
     d="m 6,0.75 a 1,1 0 0 0 -1,1 V 1.75977 C 3.236,2.2157656 2.002,3.9280001 2,5.75 c 0,0 -1.562e-4,4.999094 -1.66015625,5.621094 -0.016,0.01 -0.0220625,0.02997 -0.0390625,0.04297 a 0.726,0.726 0 0 0 -0.16210937,0.175782 c -0.018,0.027 -0.03873438,0.04913 -0.05273438,0.07813 A 0.738,0.738 0 0 0 0,12.001953 c 0,0.415 0.335,0.75 0.75,0.75 H 7.0605469 A 4.9999995,4.9999995 0 0 1 7,12 4.9999995,4.9999995 0 0 1 10.089844,7.3828125 C 10.000699,6.4630344 10,5.75 10,5.75 9.998,3.9280001 8.7649997,2.2157656 7,1.7597656 V 1.75 a 1,1 0 0 0 -1,-1 z m -1.9335938,13 A 2,2 0 0 0 6,15.25 2,2 0 0 0 7.6269531,14.410156 4.9999995,4.9999995 0 0 1 7.3183594,13.75 Z"
     id="path2" />
</svg>
